<svg width="32" height="32" viewBox="0 0 30 28" fill="none" xmlns="http://www.w3.org/2000/svg">
  <style>
    path { fill: #241209; }
    @media (prefers-color-scheme: dark) { path { fill: #f7e681; } }
  </style>
  <path fill-rule="evenodd" clip-rule="evenodd" d="M10.5337 0.256897L10.4494 0.342524H9.77526L9.01683 0.513777L8.59549 0.770658L8.08987 0.856285L6.74156 1.71255H6.57302L4.88763 2.99695L3.53932 4.36698L1.85393 6.67891L1.26404 7.79206L1.17977 8.30582L0.926964 8.64832L0.758425 9.50459L0.505617 10.0184L0.252808 11.7309L0 12.6728V15.156L0.252808 16.0979L0.421347 17.5535L0.758425 18.3242L0.842695 19.0092L1.17977 19.6942L1.26404 20.1223L2.19101 21.9205L3.45505 23.5474L4.80336 24.9174L6.40448 26.2018L7.83706 26.8868L8.17414 27.1437L8.67976 27.2293L9.18537 27.5718L9.85953 27.6575L10.0281 27.8287L10.5337 28H11.2921L11.4606 27.9144L11.2921 27.6575L10.7865 27.5718L10.1123 27.1437L9.60672 27.0581L9.43818 26.8868L8.0056 26.2018L7.66852 25.8593L7.1629 25.6024L5.73032 24.4037L4.38201 22.948L3.11797 20.893L2.94943 20.2079L2.69662 19.7798L2.61235 19.1804L2.35954 18.7523L2.19101 18.1529V17.6391L1.9382 16.7829L1.85393 15.7553L1.76966 15.6697L1.85393 13.8716L2.19101 12.6728V12.2446L2.52808 11.5596L2.69662 10.8746L3.79213 9.07646L4.88763 7.87768L5.73032 7.19267H5.89886L6.32021 7.6208L6.57302 8.13456L7.58425 9.07646L8.67976 9.67584L9.26964 9.76147L9.85953 10.0184H11.6292L12.1348 9.76147L12.7247 9.67584L13.7359 9.07646L14.7472 8.04894L15.0842 7.53517L15.5899 6.42203L15.7584 4.53824L15.5056 3.25383L15 2.31194L13.9887 1.19879L12.8932 0.513777L11.7977 0.256897H10.5337Z"/>
  <path fill-rule="evenodd" clip-rule="evenodd" d="M18.5393 0L18.3708 0.0856268L18.455 0.342507L19.5506 0.513761L20.0562 0.856268L20.7303 0.941895L23.0899 2.31192L24.1854 3.16819L25.5337 4.53822L26.6292 6.16513L27.0505 6.93577L27.1348 7.3639L27.4719 7.87767L27.5561 8.39143L27.8932 9.07644L27.9775 10.0183L28.2303 10.8746V11.8165L28.3146 11.9021L28.2303 13.6147L28.0618 14.1284L27.8932 15.4128L27.5561 16.1835L27.4719 16.6972L27.1348 17.211L26.9663 17.7247L25.955 18.9235H25.7865L25.5337 18.6666L25.4494 18.3241L24.5224 17.1254L23.3427 16.2691L22.2472 15.7553L20.5618 15.4128L18.7079 15.6697L17.6124 16.1835L16.3483 17.211L15.5056 18.581L15.3371 19.266L15.0843 19.6942L15 22.0061L15.4213 23.4617L16.0112 24.4893L16.8539 25.4312L18.2022 26.2874L19.382 26.7156L21.1517 26.8012L21.2359 26.7156L22.1629 26.6299L22.4157 26.4587L23.3427 26.2018L24.8595 25.3455L26.882 23.4617L27.8932 22.0917L28.4831 20.9786L28.5674 20.5504L28.8202 20.2079L28.9045 19.6942L29.2415 19.0948L29.3258 18.4954L29.7472 17.3822L29.8314 15.9266L30 15.1559V12.5871L29.9157 12.5015L29.7472 10.6177L29.3258 9.50457L29.2415 8.90519L28.9045 8.3058V8.04892L27.9775 6.16513L26.7135 4.45259L24.3539 2.2263L22.3314 0.941895L21.7416 0.770641L21.2359 0.428134L20.5618 0.342507L19.7191 0H18.5393Z"/>
</svg>
